<svg class="svg-icon" style="width: 1em;height: 1em;vertical-align: middle;fill: currentColor;overflow: hidden;"
     viewBox="0 0 1024 1024" version="1.1" xmlns="http://www.w3.org/2000/svg">
    <path d="M1024 512c0 282.767-229.242 512-512 512C229.233 1024 0 794.767 0 512S229.233 0 512 0c282.758 0 512 229.233 512 512z"
          fill="#cce1ffa8"/>
    <path d="M766.331 873.813H257.652c-11.412 0-20.661-9.125-20.661-20.383V170.568c0-11.257 9.25-20.382 20.661-20.382h508.679c11.411 0 20.661 9.125 20.661 20.382V853.43c0 11.258-9.25 20.383-20.661 20.383z"
          fill="#1F95FF"/>
    <path d="M271.494 201.271h480.995v628.697H271.494z" fill="#FFFFFF"/>
    <path d="M626.105 242.537h-86.867l-9.304-11.568h-35.887l-9.305 11.568h-86.865c-8.818 0-15.993-7.175-15.993-15.993v-35.435c0-8.818 7.175-15.994 15.993-15.994h228.228c8.818 0 15.993 7.176 15.993 15.994v35.435c0.001 8.818-7.174 15.993-15.993 15.993z m-84.476-4.991h84.477c6.066 0 11.002-4.936 11.002-11.002v-35.435c0-6.066-4.936-11.003-11.002-11.003H397.878c-6.066 0-11.002 4.937-11.002 11.003v35.435c0 6.066 4.936 11.002 11.002 11.002h84.475l9.304-11.567h40.669l9.303 11.567z"
          fill="#BCC3C7"/>
    <path d="M397.878 172.121h228.228v10.98H397.878z" fill="#E2E8EA"/>
    <path d="M411.479 244.533h-13.601c-9.919 0-17.99-8.07-17.99-17.989v-11.786a4.492 4.492 0 0 1 8.984 0v11.786c0 4.966 4.04 9.006 9.006 9.006h13.601a4.492 4.492 0 1 1 0 8.983zM626.105 244.533h-13.601a4.492 4.492 0 0 1 0-8.983h13.601c4.967 0 9.006-4.04 9.006-9.006v-11.786a4.492 4.492 0 0 1 8.984 0v11.786c0.001 9.919-8.07 17.989-17.99 17.989z"
          fill="#303030"/>
    <path d="M423.664 445.758h-100V345.543h100v100.215z m-88.419-11.61h76.841v-77.007h-76.841v77.007zM423.664 577.838h-100V477.836h100v100.002z m-88.416-11.582h76.837v-76.84h-76.837v76.84zM456.79 359.852h243.53v9.693H456.79zM456.79 424.116h243.53v9.693H456.79zM423.664 709.918h-100V609.916h100v100.002z m-88.416-11.581h76.837v-76.841h-76.837v76.841zM456.79 623.515h243.53v9.694H456.79zM456.79 687.778h243.53v9.695H456.79zM456.79 492.593h243.53v9.693H456.79zM456.79 556.856h243.53v9.695H456.79zM427.724 283.711H596.26v17.047H427.724z"
          fill="#B3B3B3"/>
    <path d="M368.064 401.914c12.767-12.741 47.869-48.052 60.241-60.439 2.201-2.204 4.689-3.636 7.875-3.289 3.42 0.372 5.985 2.15 7.3 5.342 1.337 3.244 1.006 6.469-1.438 9.065-4.146 4.407-8.465 8.648-12.742 12.929-10.289 10.298-43.294 43.531-53.594 53.818-5.082 5.076-9.884 5.054-14.962-0.03-8.248-8.258-16.557-16.461-24.752-24.774-4.654-4.719-3.59-11.713 2.052-14.495 3.57-1.761 7.397-0.991 10.633 2.216a3527.024 3527.024 0 0 1 15.601 15.586c1.262 1.271 2.445 2.624 3.786 4.071zM368.057 537.072c12.77-12.74 47.888-48.052 60.265-60.441 2.202-2.201 4.693-3.631 7.879-3.285 3.422 0.37 5.988 2.149 7.303 5.339 1.337 3.243 1.007 6.472-1.439 9.065-4.148 4.408-8.469 8.65-12.747 12.931-10.294 10.298-43.314 43.531-53.619 53.819-5.083 5.074-9.887 5.054-14.968-0.03-8.251-8.259-16.564-16.465-24.763-24.777-4.656-4.718-3.592-11.712 2.051-14.493 3.573-1.76 7.401-0.992 10.639 2.217a3324.16 3324.16 0 0 1 15.608 15.587c1.265 1.267 2.448 2.621 3.791 4.068zM368.057 666.397c12.77-12.74 47.888-48.052 60.265-60.441 2.202-2.201 4.693-3.631 7.879-3.285 3.422 0.37 5.988 2.149 7.303 5.339 1.337 3.243 1.007 6.472-1.439 9.065-4.148 4.408-8.469 8.65-12.747 12.931-10.294 10.298-43.314 43.531-53.619 53.818-5.083 5.075-9.887 5.055-14.968-0.029-8.251-8.259-16.564-16.465-24.763-24.777-4.656-4.718-3.592-11.712 2.051-14.493 3.573-1.76 7.401-0.992 10.639 2.217a3324.16 3324.16 0 0 1 15.608 15.587c1.265 1.268 2.448 2.621 3.791 4.068z"
          fill="#FF0000"/>
    <path d="M353.564 733.89l7.06 21.724h22.845l-18.483 13.429 7.059 21.726-18.481-13.428-18.48 13.428 7.061-21.726-18.481-13.429h22.842zM437.449 733.89l7.058 21.724h22.844l-18.48 13.429 7.059 21.726-18.481-13.428-18.481 13.428 7.058-21.726-18.479-13.429h22.843zM521.332 733.89l7.059 21.724h22.844l-18.481 13.429 7.058 21.726-18.48-13.428-18.48 13.428 7.059-21.726-18.481-13.429h22.842z"
          fill="#FF0000"/>
    <path d="M605.216 733.89l7.058 21.724h22.845l-18.482 13.429 7.058 21.726-18.479-13.428-18.48 13.428 7.059-21.726-18.482-13.429h22.843zM689.1 733.89l7.058 21.724H719l-18.48 13.429 7.059 21.726-18.479-13.428-18.482 13.428 7.06-21.726-18.481-13.429h22.843z"
          fill="#B3B3B3"/>
    <path d="M664.702 815.642l51.415-46.01-30.653-28.611-40.973 8.707z" fill="#D9D9D9"/>
    <path d="M688.956 793.936l-33.795-9.392 9.541 31.098z"/>
    <path d="M716.117 769.632L862.46 239.638l-30.572-28.568-146.424 529.951z" fill="#FFC107"/>
    <path d="M685.464 741.021l-40.973 8.707 146.413-530 40.984-8.658z" fill="#FF9800"/>
    <path d="M851.995 277.391l10.465-37.753-30.572-28.568-10.523 37.68z" fill="#F2F2F2"/>
    <path d="M821.365 248.75l-40.954 8.677 10.493-37.699 40.984-8.658z" fill="#D9D9D9"/>
    <path d="M850.481 282.836l2.583-9.37-30.662-28.647-2.549 9.375z" fill="#333333"/>
    <path d="M819.853 254.194l-40.958 8.711 2.583-9.371 40.924-8.715z"/>
</svg>